<svg xmlns="http://www.w3.org/2000/svg" width="1400" height="900" viewBox="0 0 1400 900">
  <rect width="1400" height="900" fill="#f8fafc"/>
  <text x="700" y="52" text-anchor="middle" font-family="Arial" font-size="30" font-weight="bold" fill="#0f172a">Android Navigation and Feature Flow (Mock)</text>

  <rect x="70" y="130" width="230" height="90" rx="12" fill="#dbeafe" stroke="#1d4ed8" stroke-width="3"/>
  <text x="185" y="185" text-anchor="middle" font-family="Arial" font-size="18" fill="#1e3a8a" font-weight="bold">Product List</text>

  <rect x="350" y="130" width="230" height="90" rx="12" fill="#dbeafe" stroke="#1d4ed8" stroke-width="3"/>
  <text x="465" y="185" text-anchor="middle" font-family="Arial" font-size="18" fill="#1e3a8a" font-weight="bold">Category</text>

  <rect x="630" y="130" width="230" height="90" rx="12" fill="#dbeafe" stroke="#1d4ed8" stroke-width="3"/>
  <text x="745" y="185" text-anchor="middle" font-family="Arial" font-size="18" fill="#1e3a8a" font-weight="bold">Cart</text>

  <rect x="910" y="130" width="230" height="90" rx="12" fill="#dbeafe" stroke="#1d4ed8" stroke-width="3"/>
  <text x="1025" y="185" text-anchor="middle" font-family="Arial" font-size="18" fill="#1e3a8a" font-weight="bold">Profile</text>

  <rect x="1190" y="130" width="170" height="90" rx="12" fill="#dbeafe" stroke="#1d4ed8" stroke-width="3"/>
  <text x="1275" y="185" text-anchor="middle" font-family="Arial" font-size="18" fill="#1e3a8a" font-weight="bold">Help</text>

  <rect x="180" y="330" width="240" height="90" rx="12" fill="#ede9fe" stroke="#6d28d9" stroke-width="3"/>
  <text x="300" y="385" text-anchor="middle" font-family="Arial" font-size="18" fill="#4c1d95" font-weight="bold">Product Detail</text>

  <rect x="500" y="330" width="240" height="90" rx="12" fill="#ede9fe" stroke="#6d28d9" stroke-width="3"/>
  <text x="620" y="385" text-anchor="middle" font-family="Arial" font-size="18" fill="#4c1d95" font-weight="bold">Checkout</text>

  <rect x="820" y="330" width="240" height="90" rx="12" fill="#ede9fe" stroke="#6d28d9" stroke-width="3"/>
  <text x="940" y="385" text-anchor="middle" font-family="Arial" font-size="18" fill="#4c1d95" font-weight="bold">Orders</text>

  <rect x="1140" y="330" width="200" height="90" rx="12" fill="#ede9fe" stroke="#6d28d9" stroke-width="3"/>
  <text x="1240" y="385" text-anchor="middle" font-family="Arial" font-size="18" fill="#4c1d95" font-weight="bold">Order Detail</text>

  <rect x="190" y="540" width="220" height="90" rx="12" fill="#dcfce7" stroke="#15803d" stroke-width="3"/>
  <text x="300" y="595" text-anchor="middle" font-family="Arial" font-size="17" fill="#14532d" font-weight="bold">Login / Register</text>

  <rect x="470" y="540" width="220" height="90" rx="12" fill="#dcfce7" stroke="#15803d" stroke-width="3"/>
  <text x="580" y="595" text-anchor="middle" font-family="Arial" font-size="17" fill="#14532d" font-weight="bold">Forgot / Reset</text>

  <rect x="750" y="540" width="220" height="90" rx="12" fill="#dcfce7" stroke="#15803d" stroke-width="3"/>
  <text x="860" y="595" text-anchor="middle" font-family="Arial" font-size="17" fill="#14532d" font-weight="bold">Verify Email</text>

  <rect x="1030" y="540" width="220" height="90" rx="12" fill="#dcfce7" stroke="#15803d" stroke-width="3"/>
  <text x="1140" y="595" text-anchor="middle" font-family="Arial" font-size="17" fill="#14532d" font-weight="bold">Settings</text>

  <line x1="185" y1="220" x2="300" y2="330" stroke="#334155" stroke-width="3" marker-end="url(#a)"/>
  <line x1="745" y1="220" x2="620" y2="330" stroke="#334155" stroke-width="3" marker-end="url(#a)"/>
  <line x1="745" y1="220" x2="940" y2="330" stroke="#334155" stroke-width="3" marker-end="url(#a)"/>
  <line x1="940" y1="420" x2="1240" y2="330" stroke="#334155" stroke-width="3" marker-end="url(#a)"/>
  <line x1="1025" y1="220" x2="1140" y2="540" stroke="#334155" stroke-width="3" marker-end="url(#a)"/>
  <line x1="300" y1="420" x2="300" y2="540" stroke="#334155" stroke-width="3" marker-end="url(#a)"/>
  <line x1="300" y1="420" x2="580" y2="540" stroke="#334155" stroke-width="3" marker-end="url(#a)"/>
  <line x1="300" y1="420" x2="860" y2="540" stroke="#334155" stroke-width="3" marker-end="url(#a)"/>

  <defs>
    <marker id="a" markerWidth="10" markerHeight="10" refX="8" refY="3" orient="auto" markerUnits="strokeWidth">
      <path d="M0,0 L0,6 L9,3 z" fill="#334155"/>
    </marker>
  </defs>
</svg>
