<svg xmlns="http://www.w3.org/2000/svg" width="1400" height="860" viewBox="0 0 1400 860">
  <rect width="1400" height="860" fill="#f8fafc"/>
  <text x="700" y="52" text-anchor="middle" font-family="Arial" font-size="30" font-weight="bold" fill="#0f172a">Representative Mobile Screen Wireframes (Mock)</text>

  <g>
    <rect x="110" y="130" width="260" height="560" rx="28" fill="#111827"/>
    <rect x="125" y="150" width="230" height="520" rx="20" fill="#ffffff"/>
    <rect x="145" y="185" width="190" height="34" rx="8" fill="#fde68a"/>
    <rect x="145" y="235" width="190" height="70" rx="10" fill="#e2e8f0"/>
    <rect x="145" y="320" width="90" height="90" rx="8" fill="#dbeafe"/>
    <rect x="245" y="320" width="90" height="90" rx="8" fill="#dbeafe"/>
    <rect x="145" y="420" width="90" height="90" rx="8" fill="#dbeafe"/>
    <rect x="245" y="420" width="90" height="90" rx="8" fill="#dbeafe"/>
    <text x="240" y="715" text-anchor="middle" font-family="Arial" font-size="16" fill="#334155">Product Grid</text>
  </g>

  <g>
    <rect x="440" y="130" width="260" height="560" rx="28" fill="#111827"/>
    <rect x="455" y="150" width="230" height="520" rx="20" fill="#ffffff"/>
    <rect x="475" y="185" width="190" height="180" rx="10" fill="#e2e8f0"/>
    <rect x="475" y="380" width="190" height="18" rx="6" fill="#cbd5e1"/>
    <rect x="475" y="405" width="150" height="18" rx="6" fill="#cbd5e1"/>
    <rect x="475" y="438" width="190" height="64" rx="10" fill="#dcfce7"/>
    <rect x="475" y="515" width="190" height="44" rx="10" fill="#fde68a"/>
    <text x="570" y="715" text-anchor="middle" font-family="Arial" font-size="16" fill="#334155">Product Detail</text>
  </g>

  <g>
    <rect x="770" y="130" width="260" height="560" rx="28" fill="#111827"/>
    <rect x="785" y="150" width="230" height="520" rx="20" fill="#ffffff"/>
    <rect x="805" y="185" width="190" height="70" rx="10" fill="#fee2e2"/>
    <rect x="805" y="270" width="190" height="70" rx="10" fill="#fee2e2"/>
    <rect x="805" y="355" width="190" height="70" rx="10" fill="#fee2e2"/>
    <rect x="805" y="450" width="190" height="60" rx="10" fill="#ecfeff"/>
    <rect x="805" y="525" width="190" height="34" rx="10" fill="#22c55e"/>
    <text x="900" y="715" text-anchor="middle" font-family="Arial" font-size="16" fill="#334155">Cart + Checkout</text>
  </g>

  <g>
    <rect x="1100" y="130" width="220" height="560" rx="28" fill="#111827"/>
    <rect x="1115" y="150" width="190" height="520" rx="20" fill="#ffffff"/>
    <rect x="1135" y="185" width="150" height="44" rx="10" fill="#dbeafe"/>
    <rect x="1135" y="240" width="150" height="44" rx="10" fill="#dbeafe"/>
    <rect x="1135" y="295" width="150" height="44" rx="10" fill="#dbeafe"/>
    <rect x="1135" y="360" width="150" height="120" rx="10" fill="#fef3c7"/>
    <rect x="1135" y="495" width="150" height="44" rx="10" fill="#a7f3d0"/>
    <text x="1210" y="715" text-anchor="middle" font-family="Arial" font-size="16" fill="#334155">Voice Panel</text>
  </g>
</svg>
