<svg xmlns="http://www.w3.org/2000/svg" width="1400" height="780" viewBox="0 0 1400 780">
  <rect width="1400" height="780" fill="#f8fafc"/>
  <text x="700" y="52" text-anchor="middle" font-family="Arial" font-size="30" font-weight="bold" fill="#0f172a">CI/CD and Security Workflow Overview (Mock)</text>

  <rect x="70" y="220" width="180" height="90" rx="12" fill="#dbeafe" stroke="#1d4ed8" stroke-width="3"/>
  <text x="160" y="275" text-anchor="middle" font-family="Arial" font-size="18" font-weight="bold" fill="#1e3a8a">Git Push/PR</text>

  <rect x="300" y="220" width="220" height="90" rx="12" fill="#ede9fe" stroke="#6d28d9" stroke-width="3"/>
  <text x="410" y="275" text-anchor="middle" font-family="Arial" font-size="18" font-weight="bold" fill="#4c1d95">CI Workflow</text>

  <rect x="570" y="220" width="220" height="90" rx="12" fill="#dcfce7" stroke="#15803d" stroke-width="3"/>
  <text x="680" y="265" text-anchor="middle" font-family="Arial" font-size="18" font-weight="bold" fill="#14532d">Security Scan</text>
  <text x="680" y="290" text-anchor="middle" font-family="Arial" font-size="13" fill="#14532d">Trivy + CodeQL</text>

  <rect x="840" y="220" width="220" height="90" rx="12" fill="#fff7ed" stroke="#c2410c" stroke-width="3"/>
  <text x="950" y="265" text-anchor="middle" font-family="Arial" font-size="18" font-weight="bold" fill="#9a3412">Release Workflow</text>
  <text x="950" y="290" text-anchor="middle" font-family="Arial" font-size="13" fill="#9a3412">staging / production</text>

  <rect x="1110" y="220" width="220" height="90" rx="12" fill="#fef9c3" stroke="#a16207" stroke-width="3"/>
  <text x="1220" y="275" text-anchor="middle" font-family="Arial" font-size="18" font-weight="bold" fill="#78350f">Cloudflare Deploy</text>

  <rect x="430" y="460" width="260" height="100" rx="12" fill="#ecfeff" stroke="#0e7490" stroke-width="3"/>
  <text x="560" y="515" text-anchor="middle" font-family="Arial" font-size="18" font-weight="bold" fill="#115e59">Terraform Validate</text>

  <rect x="740" y="460" width="260" height="100" rx="12" fill="#fae8ff" stroke="#a21caf" stroke-width="3"/>
  <text x="870" y="515" text-anchor="middle" font-family="Arial" font-size="18" font-weight="bold" fill="#86198f">Observability + Logs</text>

  <line x1="250" y1="265" x2="300" y2="265" stroke="#334155" stroke-width="3" marker-end="url(#arr)"/>
  <line x1="520" y1="265" x2="570" y2="265" stroke="#334155" stroke-width="3" marker-end="url(#arr)"/>
  <line x1="790" y1="265" x2="840" y2="265" stroke="#334155" stroke-width="3" marker-end="url(#arr)"/>
  <line x1="1060" y1="265" x2="1110" y2="265" stroke="#334155" stroke-width="3" marker-end="url(#arr)"/>

  <line x1="410" y1="310" x2="560" y2="460" stroke="#334155" stroke-width="3" marker-end="url(#arr)"/>
  <line x1="950" y1="310" x2="870" y2="460" stroke="#334155" stroke-width="3" marker-end="url(#arr)"/>

  <defs>
    <marker id="arr" markerWidth="10" markerHeight="10" refX="8" refY="3" orient="auto" markerUnits="strokeWidth">
      <path d="M0,0 L0,6 L9,3 z" fill="#334155"/>
    </marker>
  </defs>
</svg>
