<svg xmlns="http://www.w3.org/2000/svg" width="1200" height="860" viewBox="0 0 1200 860">
  <rect width="1200" height="860" fill="#f8fafc"/>
  <text x="600" y="52" text-anchor="middle" font-family="Arial" font-size="30" font-weight="bold" fill="#0f172a">Risk Matrix (Mock)</text>

  <rect x="180" y="150" width="760" height="620" fill="#ffffff" stroke="#64748b" stroke-width="2"/>

  <line x1="180" y1="356" x2="940" y2="356" stroke="#94a3b8" stroke-width="1"/>
  <line x1="180" y1="562" x2="940" y2="562" stroke="#94a3b8" stroke-width="1"/>
  <line x1="433" y1="150" x2="433" y2="770" stroke="#94a3b8" stroke-width="1"/>
  <line x1="686" y1="150" x2="686" y2="770" stroke="#94a3b8" stroke-width="1"/>

  <text x="560" y="815" text-anchor="middle" font-family="Arial" font-size="18" fill="#334155">Likelihood →</text>
  <text x="90" y="470" text-anchor="middle" font-family="Arial" font-size="18" fill="#334155" transform="rotate(-90 90 470)">Impact →</text>

  <text x="305" y="790" text-anchor="middle" font-family="Arial" font-size="15" fill="#334155">Low</text>
  <text x="560" y="790" text-anchor="middle" font-family="Arial" font-size="15" fill="#334155">Medium</text>
  <text x="815" y="790" text-anchor="middle" font-family="Arial" font-size="15" fill="#334155">High</text>

  <text x="150" y="665" text-anchor="end" font-family="Arial" font-size="15" fill="#334155">Low</text>
  <text x="150" y="459" text-anchor="end" font-family="Arial" font-size="15" fill="#334155">Medium</text>
  <text x="150" y="253" text-anchor="end" font-family="Arial" font-size="15" fill="#334155">High</text>

  <circle cx="780" cy="300" r="28" fill="#f97316"/>
  <text x="780" y="305" text-anchor="middle" font-family="Arial" font-size="14" fill="#fff">R1</text>

  <circle cx="770" cy="460" r="28" fill="#ef4444"/>
  <text x="770" y="465" text-anchor="middle" font-family="Arial" font-size="14" fill="#fff">R2</text>

  <circle cx="560" cy="500" r="28" fill="#f59e0b"/>
  <text x="560" y="505" text-anchor="middle" font-family="Arial" font-size="14" fill="#fff">R3</text>

  <circle cx="490" cy="670" r="28" fill="#22c55e"/>
  <text x="490" y="675" text-anchor="middle" font-family="Arial" font-size="14" fill="#fff">R4</text>

  <rect x="980" y="220" width="190" height="260" rx="10" fill="#ffffff" stroke="#94a3b8"/>
  <text x="995" y="250" font-family="Arial" font-size="14" fill="#334155">R1: API monolith growth</text>
  <text x="995" y="280" font-family="Arial" font-size="14" fill="#334155">R2: voice misrecognition</text>
  <text x="995" y="310" font-family="Arial" font-size="14" fill="#334155">R3: sync inconsistencies</text>
  <text x="995" y="340" font-family="Arial" font-size="14" fill="#334155">R4: workflow drift</text>
</svg>
