<svg xmlns="http://www.w3.org/2000/svg" width="1400" height="780" viewBox="0 0 1400 780">
  <rect width="1400" height="780" fill="#f8fafc"/>
  <text x="700" y="54" text-anchor="middle" font-family="Arial" font-size="30" font-weight="bold" fill="#0f172a">Project Timeline (Mock Gantt)</text>

  <text x="120" y="150" font-family="Arial" font-size="16" fill="#334155">Workstream</text>
  <text x="350" y="150" font-family="Arial" font-size="16" fill="#334155">W1</text>
  <text x="450" y="150" font-family="Arial" font-size="16" fill="#334155">W2</text>
  <text x="550" y="150" font-family="Arial" font-size="16" fill="#334155">W3</text>
  <text x="650" y="150" font-family="Arial" font-size="16" fill="#334155">W4</text>
  <text x="750" y="150" font-family="Arial" font-size="16" fill="#334155">W5</text>
  <text x="850" y="150" font-family="Arial" font-size="16" fill="#334155">W6</text>
  <text x="950" y="150" font-family="Arial" font-size="16" fill="#334155">W7</text>
  <text x="1050" y="150" font-family="Arial" font-size="16" fill="#334155">W8</text>

  <line x1="320" y1="180" x2="1120" y2="180" stroke="#cbd5e1" stroke-width="2"/>
  <line x1="320" y1="740" x2="1120" y2="740" stroke="#cbd5e1" stroke-width="2"/>

  <g font-family="Arial" font-size="15" fill="#1e293b">
    <text x="120" y="230">Android UI + Navigation</text>
    <rect x="350" y="205" width="380" height="35" rx="6" fill="#dbeafe" stroke="#1d4ed8"/>

    <text x="120" y="300">Repository + Room Integration</text>
    <rect x="430" y="275" width="340" height="35" rx="6" fill="#dcfce7" stroke="#15803d"/>

    <text x="120" y="370">API Worker Route Expansion</text>
    <rect x="520" y="345" width="420" height="35" rx="6" fill="#ede9fe" stroke="#6d28d9"/>

    <text x="120" y="440">AI Worker Voice + MCP</text>
    <rect x="620" y="415" width="380" height="35" rx="6" fill="#fff7ed" stroke="#c2410c"/>

    <text x="120" y="510">Security + CI/CD Hardening</text>
    <rect x="740" y="485" width="280" height="35" rx="6" fill="#fef9c3" stroke="#a16207"/>

    <text x="120" y="580">Terraform IaC Validation</text>
    <rect x="790" y="555" width="230" height="35" rx="6" fill="#ecfeff" stroke="#0e7490"/>

    <text x="120" y="650">Final Integration + Reporting</text>
    <rect x="900" y="625" width="170" height="35" rx="6" fill="#fae8ff" stroke="#a21caf"/>
  </g>

  <line x1="320" y1="180" x2="320" y2="740" stroke="#e2e8f0" stroke-width="1"/>
  <line x1="420" y1="180" x2="420" y2="740" stroke="#e2e8f0" stroke-width="1"/>
  <line x1="520" y1="180" x2="520" y2="740" stroke="#e2e8f0" stroke-width="1"/>
  <line x1="620" y1="180" x2="620" y2="740" stroke="#e2e8f0" stroke-width="1"/>
  <line x1="720" y1="180" x2="720" y2="740" stroke="#e2e8f0" stroke-width="1"/>
  <line x1="820" y1="180" x2="820" y2="740" stroke="#e2e8f0" stroke-width="1"/>
  <line x1="920" y1="180" x2="920" y2="740" stroke="#e2e8f0" stroke-width="1"/>
  <line x1="1020" y1="180" x2="1020" y2="740" stroke="#e2e8f0" stroke-width="1"/>
  <line x1="1120" y1="180" x2="1120" y2="740" stroke="#e2e8f0" stroke-width="1"/>
</svg>
