<svg xmlns="http://www.w3.org/2000/svg" width="1400" height="760" viewBox="0 0 1400 760">
  <rect width="1400" height="760" fill="#f8fafc"/>
  <text x="700" y="50" text-anchor="middle" font-family="Arial" font-size="30" font-weight="bold" fill="#0f172a">Voice Processing Pipeline (Mock)</text>

  <rect x="60" y="220" width="160" height="100" rx="12" fill="#dbeafe" stroke="#1d4ed8" stroke-width="3"/>
  <text x="140" y="280" text-anchor="middle" font-family="Arial" font-size="18" font-weight="bold" fill="#1e3a8a">Audio Input</text>

  <rect x="270" y="220" width="180" height="100" rx="12" fill="#ede9fe" stroke="#6d28d9" stroke-width="3"/>
  <text x="360" y="270" text-anchor="middle" font-family="Arial" font-size="18" font-weight="bold" fill="#4c1d95">STT</text>
  <text x="360" y="295" text-anchor="middle" font-family="Arial" font-size="13" fill="#4c1d95">Whisper</text>

  <rect x="500" y="220" width="220" height="100" rx="12" fill="#dcfce7" stroke="#15803d" stroke-width="3"/>
  <text x="610" y="270" text-anchor="middle" font-family="Arial" font-size="18" font-weight="bold" fill="#14532d">Normalize Text</text>
  <text x="610" y="295" text-anchor="middle" font-family="Arial" font-size="13" fill="#14532d">Vietnamese corrections</text>

  <rect x="770" y="220" width="220" height="100" rx="12" fill="#fef9c3" stroke="#a16207" stroke-width="3"/>
  <text x="880" y="270" text-anchor="middle" font-family="Arial" font-size="18" font-weight="bold" fill="#78350f">LLM Intent</text>
  <text x="880" y="295" text-anchor="middle" font-family="Arial" font-size="13" fill="#78350f">Tool-calling model</text>

  <rect x="1040" y="220" width="280" height="100" rx="12" fill="#fff7ed" stroke="#c2410c" stroke-width="3"/>
  <text x="1180" y="270" text-anchor="middle" font-family="Arial" font-size="18" font-weight="bold" fill="#9a3412">MCP Tools + D1/Vectorize</text>
  <text x="1180" y="295" text-anchor="middle" font-family="Arial" font-size="13" fill="#9a3412">search / cart / checkout / faq / orders</text>

  <rect x="420" y="470" width="240" height="100" rx="12" fill="#ecfeff" stroke="#0e7490" stroke-width="3"/>
  <text x="540" y="525" text-anchor="middle" font-family="Arial" font-size="18" font-weight="bold" fill="#115e59">Intent Mapper</text>

  <rect x="720" y="470" width="220" height="100" rx="12" fill="#dcfce7" stroke="#15803d" stroke-width="3"/>
  <text x="830" y="520" text-anchor="middle" font-family="Arial" font-size="18" font-weight="bold" fill="#14532d">Response Text</text>
  <text x="830" y="545" text-anchor="middle" font-family="Arial" font-size="13" fill="#14532d">action payload</text>

  <rect x="990" y="470" width="220" height="100" rx="12" fill="#ede9fe" stroke="#6d28d9" stroke-width="3"/>
  <text x="1100" y="520" text-anchor="middle" font-family="Arial" font-size="18" font-weight="bold" fill="#4c1d95">TTS</text>
  <text x="1100" y="545" text-anchor="middle" font-family="Arial" font-size="13" fill="#4c1d95">MeloTTS</text>

  <line x1="220" y1="270" x2="270" y2="270" stroke="#334155" stroke-width="3" marker-end="url(#ar)"/>
  <line x1="450" y1="270" x2="500" y2="270" stroke="#334155" stroke-width="3" marker-end="url(#ar)"/>
  <line x1="720" y1="270" x2="770" y2="270" stroke="#334155" stroke-width="3" marker-end="url(#ar)"/>
  <line x1="990" y1="270" x2="1040" y2="270" stroke="#334155" stroke-width="3" marker-end="url(#ar)"/>
  <line x1="1180" y1="320" x2="1180" y2="470" stroke="#334155" stroke-width="3" marker-end="url(#ar)"/>
  <line x1="1180" y1="520" x2="940" y2="520" stroke="#334155" stroke-width="3" marker-end="url(#ar)"/>
  <line x1="720" y1="520" x2="660" y2="520" stroke="#334155" stroke-width="3" marker-end="url(#ar)"/>

  <defs>
    <marker id="ar" markerWidth="10" markerHeight="10" refX="8" refY="3" orient="auto" markerUnits="strokeWidth">
      <path d="M0,0 L0,6 L9,3 z" fill="#334155"/>
    </marker>
  </defs>
</svg>
